<svg xmlns="http://www.w3.org/2000/svg" width="47" height="10" viewBox="0 0 47 10"><defs><linearGradient id="8z2la" x1="47" x2="0" y1="5" y2="5" gradientUnits="userSpaceOnUse"><stop offset="0" stop-color="#ff7d56"/><stop offset="1" stop-color="#ff498e"/></linearGradient></defs><g><g><path fill="#fff" d="M46.795 4.747L41.187.168a.646.646 0 0 0-.716-.104c-.26.111-.39.313-.39.605v3.47H.656a.628.628 0 0 0-.47.187.657.657 0 0 0-.185.48v.534a.633.633 0 0 0 .654.668h39.428V9.33c0 .28.13.48.389.605.259.112.498.07.716-.124l5.608-4.084a.69.69 0 0 0 0-.98z"/><path fill="url(#8z2la)" d="M46.795 4.747L41.187.168a.646.646 0 0 0-.716-.104c-.26.111-.39.313-.39.605v3.47H.656a.628.628 0 0 0-.47.187.657.657 0 0 0-.185.48v.534a.633.633 0 0 0 .654.668h39.428V9.33c0 .28.13.48.389.605.259.112.498.07.716-.124l5.608-4.084a.69.69 0 0 0 0-.98z"/></g></g></svg>