<svg xmlns="http://www.w3.org/2000/svg" width="16" height="16" viewBox="0 0 16 16"><defs><linearGradient id="68u7a" x1="16" x2="0" y1="8" y2="8" gradientUnits="userSpaceOnUse"><stop offset="0" stop-color="#ff7d56"/><stop offset="1" stop-color="#ff498e"/></linearGradient></defs><g><g><path fill="#5d6178" d="M15.997 8c0 4.41-3.587 7.997-7.997 7.997S.002 12.41.002 8C.002 3.59 3.59.001 8 .001S15.997 3.59 15.997 8zm-1.61 0A6.394 6.394 0 0 0 8 1.613 6.394 6.394 0 0 0 1.613 8c0 1.676.653 3.198 1.712 4.338v-.246c0-1.09 1.3-1.516 1.935-1.777.27-.111.72-.325 1.176-.549a.647.647 0 0 0 .322-.463l.05-.5a2.652 2.652 0 0 1-.748-1.352h-.073c-.128 0-.25-.096-.268-.213l-.128-.79c0-.16.123-.261.246-.269a2.31 2.31 0 0 1-.058-.627c.008-.212.039-.409.086-.57.053-.26.175-.525.372-.756.362-.423.862-.615 1.282-.542.618-.476 1.343-.246 1.967.346.225.213.386.46.493.716.104.183.167.51.154.882-.003.077-.01.151-.018.223a2.73 2.73 0 0 1-.04.324c.128 0 .287.103.27.272l-.128.79c-.019.117-.14.213-.268.213h-.081c-.055.523-.381.992-.742 1.328l.052.517a.645.645 0 0 0 .321.463c.473.231.933.452 1.177.556.675.289 1.935.687 1.935 1.777v.316A6.362 6.362 0 0 0 14.387 8z"/><path fill="url(#68u7a)" d="M15.997 8c0 4.41-3.587 7.997-7.997 7.997S.002 12.41.002 8C.002 3.59 3.59.001 8 .001S15.997 3.59 15.997 8zm-1.61 0A6.394 6.394 0 0 0 8 1.613 6.394 6.394 0 0 0 1.613 8c0 1.676.653 3.198 1.712 4.338v-.246c0-1.09 1.3-1.516 1.935-1.777.27-.111.72-.325 1.176-.549a.647.647 0 0 0 .322-.463l.05-.5a2.652 2.652 0 0 1-.748-1.352h-.073c-.128 0-.25-.096-.268-.213l-.128-.79c0-.16.123-.261.246-.269a2.31 2.31 0 0 1-.058-.627c.008-.212.039-.409.086-.57.053-.26.175-.525.372-.756.362-.423.862-.615 1.282-.542.618-.476 1.343-.246 1.967.346.225.213.386.46.493.716.104.183.167.51.154.882-.003.077-.01.151-.018.223a2.73 2.73 0 0 1-.04.324c.128 0 .287.103.27.272l-.128.79c-.019.117-.14.213-.268.213h-.081c-.055.523-.381.992-.742 1.328l.052.517a.645.645 0 0 0 .321.463c.473.231.933.452 1.177.556.675.289 1.935.687 1.935 1.777v.316A6.362 6.362 0 0 0 14.387 8z"/></g></g></svg>