<svg xmlns="http://www.w3.org/2000/svg" width="22" height="20" viewBox="0 0 22 20"><g><g><path fill="#fff" d="M20.168 17.274c0 1.503-1.231 2.725-2.744 2.725-1.513 0-2.744-1.222-2.744-2.725 0-1.502 1.231-2.725 2.744-2.725 1.513 0 2.744 1.223 2.744 2.725zm-1.646 0c0-.6-.493-1.09-1.098-1.09-.605 0-1.098.49-1.098 1.09 0 .601.493 1.09 1.098 1.09.605 0 1.098-.489 1.098-1.09zm3.46-12.556l-2.003 8.039a.821.821 0 0 1-.799.62H6.366a.822.822 0 0 1-.8-.627L2.89 1.634H.823A.82.82 0 0 1 0 .816.82.82 0 0 1 .823 0H3.54c.38 0 .712.26.8.628l.741 3.078h16.102a.815.815 0 0 1 .799 1.013zm-1.85.622H5.474l1.54 6.403h11.521zm-9.925 11.934c0 1.503-1.23 2.725-2.744 2.725-1.513 0-2.743-1.222-2.743-2.725 0-1.502 1.23-2.725 2.743-2.725 1.514 0 2.744 1.223 2.744 2.725zm-1.646 0c0-.6-.492-1.09-1.098-1.09-.605 0-1.097.49-1.097 1.09 0 .601.492 1.09 1.097 1.09.606 0 1.098-.489 1.098-1.09z"/></g></g></svg>