<svg xmlns="http://www.w3.org/2000/svg" width="43" height="40" viewBox="0 0 43 40"><defs><linearGradient id="ahl8a" x1="43" x2="0" y1="19.98" y2="20" gradientUnits="userSpaceOnUse"><stop offset="0" stop-color="#ff7d56"/><stop offset="1" stop-color="#ff498e"/></linearGradient></defs><g><g><path fill="#00ffef" d="M42.999 38.846a1.1 1.1 0 0 1-1.1 1.098L1.135 40h-.001a1.095 1.095 0 0 1-1.101-1.095L0 15.127l.002-.02c.005-.342.17-.677.474-.886L6.66 9.963V5.448A1.1 1.1 0 0 1 7.762 4.35h7.05L20.876.176c.378-.26.878-.259 1.255.002l6.025 4.173h7.081a1.1 1.1 0 0 1 1.101 1.097v4.569l6.156 4.262c.22.152.367.37.433.609.025.056.04.153.04.218zm-6.66-21.285l3.518-2.437-3.519-2.436zM18.686 4.351h5.611l-2.797-1.937zM8.863 19.135l8.493 5.847 3.485-2.693c.401-.31.948-.3 1.335-.01l.015.01 3.46 2.673 8.485-5.876V6.545H8.863zm-5.826-4.01l3.624 2.494v-4.99zm-.805 21.542l13.299-10.275L2.205 17.22zm36.382 1.088L21.516 24.544 4.356 37.802zm2.18-1.092l-.027-19.497-13.293 9.205zM30.056 12.029a1.1 1.1 0 0 1-1.101 1.097h-14.91a1.1 1.1 0 0 1-1.101-1.097 1.1 1.1 0 0 1 1.1-1.097h14.91a1.1 1.1 0 0 1 1.102 1.097zm0 5.704c0 .606-.493 1.097-1.101 1.097h-14.91a1.1 1.1 0 0 1-1.101-1.097 1.1 1.1 0 0 1 1.1-1.097h14.91c.609 0 1.102.491 1.102 1.097z"/><path fill="url(#ahl8a)" d="M42.999 38.846a1.1 1.1 0 0 1-1.1 1.098L1.135 40h-.001a1.095 1.095 0 0 1-1.101-1.095L0 15.127l.002-.02c.005-.342.17-.677.474-.886L6.66 9.963V5.448A1.1 1.1 0 0 1 7.762 4.35h7.05L20.876.176c.378-.26.878-.259 1.255.002l6.025 4.173h7.081a1.1 1.1 0 0 1 1.101 1.097v4.569l6.156 4.262c.22.152.367.37.433.609.025.056.04.153.04.218zm-6.66-21.285l3.518-2.437-3.519-2.436zM18.686 4.351h5.611l-2.797-1.937zM8.863 19.135l8.493 5.847 3.485-2.693c.401-.31.948-.3 1.335-.01l.015.01 3.46 2.673 8.485-5.876V6.545H8.863zm-5.826-4.01l3.624 2.494v-4.99zm-.805 21.542l13.299-10.275L2.205 17.22zm36.382 1.088L21.516 24.544 4.356 37.802zm2.18-1.092l-.027-19.497-13.293 9.205zM30.056 12.029a1.1 1.1 0 0 1-1.101 1.097h-14.91a1.1 1.1 0 0 1-1.101-1.097 1.1 1.1 0 0 1 1.1-1.097h14.91a1.1 1.1 0 0 1 1.102 1.097zm0 5.704c0 .606-.493 1.097-1.101 1.097h-14.91a1.1 1.1 0 0 1-1.101-1.097 1.1 1.1 0 0 1 1.1-1.097h14.91c.609 0 1.102.491 1.102 1.097z"/></g></g></svg>