<svg xmlns="http://www.w3.org/2000/svg" width="40" height="40" viewBox="0 0 40 40"><defs><linearGradient id="mw2fa" x1="39.97" x2="-.03" y1="20" y2="20" gradientUnits="userSpaceOnUse"><stop offset="0" stop-color="#ff7d56"/><stop offset="1" stop-color="#ff498e"/></linearGradient></defs><g><g><path fill="#00ffef" d="M38.48 34.687l-2.04 2.038a2.387 2.387 0 0 1-2.365.608l-.428.428C32.16 39.246 30.087 40 27.599 40c-1.517 0-3.188-.28-4.974-.846-4.445-1.407-9.155-4.442-13.26-8.544-4.106-4.102-7.143-8.808-8.551-13.25-1.44-4.536-1.032-8.33 1.138-10.74.033-.042.685-.7.685-.7a2.4 2.4 0 0 1 .608-2.363l2.04-2.038A2.387 2.387 0 0 1 6.983.816c.64 0 1.244.25 1.697.703l7.844 7.838a2.4 2.4 0 0 1 0 3.393l-2.04 2.038a2.395 2.395 0 0 1-2.364.607l-.77.77c-.547.547.293 3.948 4.407 8.058 4.114 4.111 7.518 4.95 8.065 4.403l.77-.77a2.4 2.4 0 0 1 .608-2.362l2.04-2.038a2.405 2.405 0 0 1 3.396 0l7.844 7.838a2.4 2.4 0 0 1 0 3.393zM4.943 5.254l3.922 3.918 3.893 3.89.029.03h.001l2.039-2.039-7.844-7.838zm27.223 30.594l-6.088-6.083-.558.557c-.583.583-1.348.843-2.23.843-2.625 0-6.28-2.297-9.23-5.245-3.943-3.939-6.722-9.136-4.409-11.45l.001-.002.559-.558-6.088-6.082-.217.216c-1.727 1.727-2.013 4.778-.803 8.591 1.295 4.083 4.121 8.443 7.96 12.278 3.838 3.836 8.202 6.66 12.288 7.954 3.816 1.209 6.87.923 8.597-.802zm4.616-2.858l-7.845-7.837-2.04 2.038 7.845 7.838 2.04-2.039zM33.91 18.166a1.2 1.2 0 0 1-2.402 0 9.613 9.613 0 0 0-2.838-6.846 9.629 9.629 0 0 0-6.851-2.835 1.2 1.2 0 1 1 0-2.4c3.23 0 6.266 1.257 8.55 3.539a11.998 11.998 0 0 1 3.54 8.542zm6.09 0a1.2 1.2 0 0 1-2.402 0c0-4.211-1.641-8.17-4.621-11.149A15.683 15.683 0 0 0 21.819 2.4a1.2 1.2 0 1 1 0-2.399 18.07 18.07 0 0 1 12.856 5.32A18.04 18.04 0 0 1 40 18.167zm-12.18 0a1.2 1.2 0 1 1-2.401 0c-.001-.975-.365-1.854-1.055-2.543a3.483 3.483 0 0 0-2.544-1.053 1.2 1.2 0 1 1 0-2.4c1.625 0 3.092.608 4.242 1.757a5.875 5.875 0 0 1 1.757 4.239z"/><path fill="url(#mw2fa)" d="M38.48 34.687l-2.04 2.038a2.387 2.387 0 0 1-2.365.608l-.428.428C32.16 39.246 30.087 40 27.599 40c-1.517 0-3.188-.28-4.974-.846-4.445-1.407-9.155-4.442-13.26-8.544-4.106-4.102-7.143-8.808-8.551-13.25-1.44-4.536-1.032-8.33 1.138-10.74.033-.042.685-.7.685-.7a2.4 2.4 0 0 1 .608-2.363l2.04-2.038A2.387 2.387 0 0 1 6.983.816c.64 0 1.244.25 1.697.703l7.844 7.838a2.4 2.4 0 0 1 0 3.393l-2.04 2.038a2.395 2.395 0 0 1-2.364.607l-.77.77c-.547.547.293 3.948 4.407 8.058 4.114 4.111 7.518 4.95 8.065 4.403l.77-.77a2.4 2.4 0 0 1 .608-2.362l2.04-2.038a2.405 2.405 0 0 1 3.396 0l7.844 7.838a2.4 2.4 0 0 1 0 3.393zM4.943 5.254l3.922 3.918 3.893 3.89.029.03h.001l2.039-2.039-7.844-7.838zm27.223 30.594l-6.088-6.083-.558.557c-.583.583-1.348.843-2.23.843-2.625 0-6.28-2.297-9.23-5.245-3.943-3.939-6.722-9.136-4.409-11.45l.001-.002.559-.558-6.088-6.082-.217.216c-1.727 1.727-2.013 4.778-.803 8.591 1.295 4.083 4.121 8.443 7.96 12.278 3.838 3.836 8.202 6.66 12.288 7.954 3.816 1.209 6.87.923 8.597-.802zm4.616-2.858l-7.845-7.837-2.04 2.038 7.845 7.838 2.04-2.039zM33.91 18.166a1.2 1.2 0 0 1-2.402 0 9.613 9.613 0 0 0-2.838-6.846 9.629 9.629 0 0 0-6.851-2.835 1.2 1.2 0 1 1 0-2.4c3.23 0 6.266 1.257 8.55 3.539a11.998 11.998 0 0 1 3.54 8.542zm6.09 0a1.2 1.2 0 0 1-2.402 0c0-4.211-1.641-8.17-4.621-11.149A15.683 15.683 0 0 0 21.819 2.4a1.2 1.2 0 1 1 0-2.399 18.07 18.07 0 0 1 12.856 5.32A18.04 18.04 0 0 1 40 18.167zm-12.18 0a1.2 1.2 0 1 1-2.401 0c-.001-.975-.365-1.854-1.055-2.543a3.483 3.483 0 0 0-2.544-1.053 1.2 1.2 0 1 1 0-2.4c1.625 0 3.092.608 4.242 1.757a5.875 5.875 0 0 1 1.757 4.239z"/></g></g></svg>