<svg xmlns="http://www.w3.org/2000/svg" width="29" height="40" viewBox="0 0 29 40"><defs><linearGradient id="56hda" x1="29.08" x2=".08" y1="20" y2="20.01" gradientUnits="userSpaceOnUse"><stop offset="0" stop-color="#ff7d56"/><stop offset="1" stop-color="#ff498e"/></linearGradient></defs><g><g><path fill="#00ffef" d="M29.078 14.49c0 9.916-12.976 24.474-13.528 25.089a1.307 1.307 0 0 1-1.943 0C13.054 38.964.078 24.406.078 14.49.078 6.5 6.583 0 14.578 0s14.5 6.5 14.5 14.49zm-2.611 0c0-6.55-5.333-11.88-11.889-11.88C8.023 2.61 2.69 7.94 2.69 14.49c0 6.806 7.522 17.034 11.89 22.218 4.367-5.186 11.888-15.412 11.888-22.218zm-4.594 0c0 4.02-3.272 7.291-7.295 7.291-4.022 0-7.295-3.27-7.295-7.29S10.555 7.2 14.578 7.2s7.295 3.27 7.295 7.29zm-2.61 0a4.688 4.688 0 0 0-4.685-4.68 4.688 4.688 0 0 0-4.684 4.68 4.688 4.688 0 0 0 4.684 4.682c2.583 0 4.684-2.1 4.684-4.682z"/><path fill="url(#56hda)" d="M29.078 14.49c0 9.916-12.976 24.474-13.528 25.089a1.307 1.307 0 0 1-1.943 0C13.054 38.964.078 24.406.078 14.49.078 6.5 6.583 0 14.578 0s14.5 6.5 14.5 14.49zm-2.611 0c0-6.55-5.333-11.88-11.889-11.88C8.023 2.61 2.69 7.94 2.69 14.49c0 6.806 7.522 17.034 11.89 22.218 4.367-5.186 11.888-15.412 11.888-22.218zm-4.594 0c0 4.02-3.272 7.291-7.295 7.291-4.022 0-7.295-3.27-7.295-7.29S10.555 7.2 14.578 7.2s7.295 3.27 7.295 7.29zm-2.61 0a4.688 4.688 0 0 0-4.685-4.68 4.688 4.688 0 0 0-4.684 4.68 4.688 4.688 0 0 0 4.684 4.682c2.583 0 4.684-2.1 4.684-4.682z"/></g></g></svg>