<svg xmlns="http://www.w3.org/2000/svg" width="16" height="19" viewBox="0 0 16 19"><defs><linearGradient id="7rtka" x1="16" x2="0" y1="9" y2="10" gradientUnits="userSpaceOnUse"><stop offset="0" stop-color="#ff7d56"/><stop offset="1" stop-color="#ff498e"/></linearGradient></defs><g><g><path fill="#fd2954" d="M1 17a1 1 0 1 1 0 2 1 1 0 0 1 0-2zm7-4a1 1 0 1 1 0 2 1 1 0 0 1 0-2zm7-2a1 1 0 1 1 0 2 1 1 0 0 1 0-2zM0 0h2v15H0zm7 0h2v11H7zm7 0h2v9h-2z"/><path fill="url(#7rtka)" d="M1 17a1 1 0 1 1 0 2 1 1 0 0 1 0-2zm7-4a1 1 0 1 1 0 2 1 1 0 0 1 0-2zm7-2a1 1 0 1 1 0 2 1 1 0 0 1 0-2zM0 0h2v15H0zm7 0h2v11H7zm7 0h2v9h-2z"/></g></g></svg>