<svg xmlns="http://www.w3.org/2000/svg" width="19" height="45" viewBox="0 0 19 45"><defs><linearGradient id="sq5ba" x1="19" x2="0" y1="23" y2="22" gradientUnits="userSpaceOnUse"><stop offset="0" stop-color="#ff7d56"/><stop offset="1" stop-color="#ff498e"/></linearGradient></defs><g><g><path fill="#fd2954" d="M1 42.75c.552 0 1 .503 1 1.125C2 44.496 1.552 45 1 45s-1-.504-1-1.125c0-.622.448-1.125 1-1.125zm9-6.125c.552 0 1 .504 1 1.125s-.448 1.125-1 1.125-1-.504-1-1.125.448-1.125 1-1.125zM18 29c.552 0 1 .504 1 1.125s-.448 1.125-1 1.125-1-.504-1-1.125S17.448 29 18 29zM0 0h2v39.375H0zm9 0h2v32.875H9zm8 0h2v25.625h-2z"/><path fill="url(#sq5ba)" d="M1 42.75c.552 0 1 .503 1 1.125C2 44.496 1.552 45 1 45s-1-.504-1-1.125c0-.622.448-1.125 1-1.125zm9-6.125c.552 0 1 .504 1 1.125s-.448 1.125-1 1.125-1-.504-1-1.125.448-1.125 1-1.125zM18 29c.552 0 1 .504 1 1.125s-.448 1.125-1 1.125-1-.504-1-1.125S17.448 29 18 29zM0 0h2v39.375H0zm9 0h2v32.875H9zm8 0h2v25.625h-2z"/></g></g></svg>