<svg xmlns="http://www.w3.org/2000/svg" width="18" height="18" viewBox="0 0 18 18"><g><g><path fill="#b7bad2" d="M18 2.109v13.78c0 1.164-.946 2.11-2.11 2.11H2.11A2.112 2.112 0 0 1 0 15.889V2.11C0 .945.946-.001 2.11-.001h13.78C17.055 0 18 .945 18 2.11zm-1.406 0a.704.704 0 0 0-.703-.704H2.109a.704.704 0 0 0-.703.704v13.78c0 .388.316.704.703.704h7.595v-5.73h-2.11v-2.18h2.11V7.177c0-1.79 1.443-3.24 3.233-3.24h1.442v2.18h-1.442c-.596 0-1.054.457-1.054 1.054v1.512h2.531l-.359 2.18h-2.172v5.73h4.008a.704.704 0 0 0 .703-.703z"/></g></g></svg>