<svg xmlns="http://www.w3.org/2000/svg" width="18" height="18" viewBox="0 0 18 18"><g><g><path fill="#b7bad2" d="M18 5.228v7.543a5.235 5.235 0 0 1-5.229 5.228H5.23A5.235 5.235 0 0 1 0 12.771V5.228A5.235 5.235 0 0 1 5.229 0h7.542A5.235 5.235 0 0 1 18 5.23zm-1.406 0a3.827 3.827 0 0 0-3.823-3.823H5.23a3.827 3.827 0 0 0-3.823 3.823v7.543a3.827 3.827 0 0 0 3.823 3.822h7.542a3.827 3.827 0 0 0 3.823-3.822zM13.85 9A4.857 4.857 0 0 1 9 13.851a4.857 4.857 0 0 1-4.852-4.852A4.857 4.857 0 0 1 9 4.148a4.857 4.857 0 0 1 4.851 4.851zm-1.406 0A3.45 3.45 0 0 0 9 5.554a3.45 3.45 0 0 0-3.445 3.445A3.45 3.45 0 0 0 9 12.445a3.45 3.45 0 0 0 3.445-3.446zm1.477-5.625a.703.703 0 1 1 0 1.406.703.703 0 0 1 0-1.406z"/></g></g></svg>