<svg version="1.1" id="Capa_1" xmlns="http://www.w3.org/2000/svg" xmlns:xlink="http://www.w3.org/1999/xlink" x="0px" y="0px"
	 viewBox="0 0 47.607 47.607" style="enable-background:new 0 0 47.607 47.607;" xml:space="preserve">
<defs><linearGradient id="b8qga" x1="11" x2="0" y1="6.02" y2="6" gradientUnits="userSpaceOnUse"><stop offset="0" stop-color="#ff7d56"/><stop offset="1" stop-color="#ff498e"/></linearGradient></defs>
<g>
	<path fill="url(#b8qga)" d="M17.991,40.976c0,3.662-2.969,6.631-6.631,6.631l0,0c-3.662,0-6.631-2.969-6.631-6.631V6.631C4.729,2.969,7.698,0,11.36,0
		l0,0c3.662,0,6.631,2.969,6.631,6.631V40.976z"/>
	<path fill="url(#b8qga)" d="M42.877,40.976c0,3.662-2.969,6.631-6.631,6.631l0,0c-3.662,0-6.631-2.969-6.631-6.631V6.631
		C29.616,2.969,32.585,0,36.246,0l0,0c3.662,0,6.631,2.969,6.631,6.631V40.976z"/>
</g>
</svg>
