<svg xmlns="http://www.w3.org/2000/svg" width="32" height="33" viewBox="0 0 32 33"><defs><linearGradient id="mf0ga" x1="31.98" x2="-.02" y1="16.04" y2="16.98" gradientUnits="userSpaceOnUse"><stop offset="0" stop-color="#ff7d56"/><stop offset="1" stop-color="#ff498e"/></linearGradient><linearGradient id="mf0gb" x1="27.01" x2="7.01" y1="14.03" y2="14.99" gradientUnits="userSpaceOnUse"><stop offset="0" stop-color="#ff7d56"/><stop offset="1" stop-color="#ff498e"/></linearGradient></defs><g><g opacity=".44"><path d="M29.813 8.538L4.153.127C3.399-.1 2.597.157 1.979.302-.493.884-.025 2.738.09 3.208l6.882 27.918c.098.398.563 2.329 3.035 1.748.618-.146 1.452-.276 2.017-.812l18.926-18.908c1.568-1.49.944-2.664.944-2.664s.009-1.324-2.082-1.952z"/><path fill="url(#mf0ga)" d="M29.813 8.538L4.153.127C3.399-.1 2.597.157 1.979.302-.493.884-.025 2.738.09 3.208l6.882 27.918c.098.398.563 2.329 3.035 1.748.618-.146 1.452-.276 2.017-.812l18.926-18.908c1.568-1.49.944-2.664.944-2.664s.009-1.324-2.082-1.952z"/></g><g><path d="M25.91 12.887L10.22 3.261c-.464-.269-1.04-.224-1.475-.224-1.74 0-1.732 1.308-1.732 1.64V24.35c0 .28-.008 1.64 1.732 1.64.435 0 1.011.045 1.475-.224l15.69-9.626c1.287-.746 1.065-1.627 1.065-1.627s.222-.88-1.066-1.627z"/><path fill="url(#mf0gb)" d="M25.91 12.887L10.22 3.261c-.464-.269-1.04-.224-1.475-.224-1.74 0-1.732 1.308-1.732 1.64V24.35c0 .28-.008 1.64 1.732 1.64.435 0 1.011.045 1.475-.224l15.69-9.626c1.287-.746 1.065-1.627 1.065-1.627s.222-.88-1.066-1.627z"/></g></g></svg>