<svg xmlns="http://www.w3.org/2000/svg" width="20" height="23" viewBox="0 0 20 23"><defs><linearGradient id="f2rua" x1="20.01" x2=".01" y1="11.03" y2="11.99" gradientUnits="userSpaceOnUse"><stop offset="0" stop-color="#ff7d56"/><stop offset="1" stop-color="#ff498e"/></linearGradient></defs><g><g><path d="M18.91 9.887L3.22.261C2.756-.008 2.18.037 1.745.037.005.037.013 1.345.013 1.677V21.35c0 .28-.008 1.64 1.732 1.64.435 0 1.011.045 1.475-.224l15.69-9.626c1.287-.746 1.065-1.627 1.065-1.627s.222-.88-1.066-1.627z"/><path fill="url(#f2rua)" d="M18.91 9.887L3.22.261C2.756-.008 2.18.037 1.745.037.005.037.013 1.345.013 1.677V21.35c0 .28-.008 1.64 1.732 1.64.435 0 1.011.045 1.475-.224l15.69-9.626c1.287-.746 1.065-1.627 1.065-1.627s.222-.88-1.066-1.627z"/></g></g></svg>