<svg xmlns="http://www.w3.org/2000/svg" width="22" height="18" viewBox="0 0 22 18"><defs><linearGradient id="hwhha" x1="22" x2="0" y1="9" y2="9" gradientUnits="userSpaceOnUse"><stop offset="0" stop-color="#ff7d56"/><stop offset="1" stop-color="#ff498e"/></linearGradient></defs><g><g><path fill="#fd2954" d="M22 2.076c-.604.914-1.352 1.781-2.234 2.423v.606C19.766 11.12 15.218 18 6.918 18c-2.55 0-4.923-.786-6.918-2.077.258.044.71.087 1.074.087 2.098 0 4.048-.833 5.586-2.034v-.043c-1.976 0-3.636-1.179-4.21-2.985.275.052.566.13.859.13.38 0 .886-.078 1.246-.174C2.49 10.486.885 8.585.885 6.38c0-.02-.026-.043-.026-.063.599.334 1.34.835 2.063.865v-.087C1.71 6.281.945 4.543.945 3.245c0-.835.215-1.795.602-2.467 2.207 2.731 5.568 4.632 9.281 4.846v-.043a4.498 4.498 0 0 1-.129-1.038c0-2.513 2.064-4.544 4.555-4.544 1.3 0 2.399.544 3.223 1.428A9.368 9.368 0 0 0 21.398.302a4.681 4.681 0 0 1-2.02 2.553l.012.043c1.026-.066 2.61-.822 2.61-.822zm-3.953 2.505l-.321-1.25-.011-.043-.053-.206-.439-.47c-.545-.585-1.208-.882-1.97-.882a2.83 2.83 0 0 0-2.004.831 2.777 2.777 0 0 0-.831 1.982c0 .193.027.407.082.635l.047.199v2.08l-1.817-.105c-2.784-.16-5.462-1.151-7.718-2.807.213.432.513.831.843 1.111l.764.514.022.882v1.206c0 .424.292.792.703.886l.93.211v1.415c0 .78.622 1.415 1.397 1.423l.708.008v2.752l-.666.52c-.37.29-.76.552-1.165.79.124.003.247.005.37.005 4.195 0 6.802-1.962 8.25-3.608a11.551 11.551 0 0 0 2.148-3.612c.478-1.281.73-2.645.73-3.943z"/><path fill="url(#hwhha)" d="M22 2.076c-.604.914-1.352 1.781-2.234 2.423v.606C19.766 11.12 15.218 18 6.918 18c-2.55 0-4.923-.786-6.918-2.077.258.044.71.087 1.074.087 2.098 0 4.048-.833 5.586-2.034v-.043c-1.976 0-3.636-1.179-4.21-2.985.275.052.566.13.859.13.38 0 .886-.078 1.246-.174C2.49 10.486.885 8.585.885 6.38c0-.02-.026-.043-.026-.063.599.334 1.34.835 2.063.865v-.087C1.71 6.281.945 4.543.945 3.245c0-.835.215-1.795.602-2.467 2.207 2.731 5.568 4.632 9.281 4.846v-.043a4.498 4.498 0 0 1-.129-1.038c0-2.513 2.064-4.544 4.555-4.544 1.3 0 2.399.544 3.223 1.428A9.368 9.368 0 0 0 21.398.302a4.681 4.681 0 0 1-2.02 2.553l.012.043c1.026-.066 2.61-.822 2.61-.822zm-3.953 2.505l-.321-1.25-.011-.043-.053-.206-.439-.47c-.545-.585-1.208-.882-1.97-.882a2.83 2.83 0 0 0-2.004.831 2.777 2.777 0 0 0-.831 1.982c0 .193.027.407.082.635l.047.199v2.08l-1.817-.105c-2.784-.16-5.462-1.151-7.718-2.807.213.432.513.831.843 1.111l.764.514.022.882v1.206c0 .424.292.792.703.886l.93.211v1.415c0 .78.622 1.415 1.397 1.423l.708.008v2.752l-.666.52c-.37.29-.76.552-1.165.79.124.003.247.005.37.005 4.195 0 6.802-1.962 8.25-3.608a11.551 11.551 0 0 0 2.148-3.612c.478-1.281.73-2.645.73-3.943z"/></g></g></svg>