<svg xmlns="http://www.w3.org/2000/svg" width="11" height="12" viewBox="0 0 11 12"><defs><linearGradient id="b8qga" x1="11" x2="0" y1="6.02" y2="6" gradientUnits="userSpaceOnUse"><stop offset="0" stop-color="#ff7d56"/><stop offset="1" stop-color="#ff498e"/></linearGradient></defs><g><g><path d="M10.3 5.163L1.75.143C1.497.002 1.184.025.946.025c-.948 0-.944.683-.944.856v10.26c0 .145-.004.854.944.854.238 0 .552.024.804-.116l8.55-5.02c.703-.39.582-.848.582-.848s.12-.46-.581-.848z"/><path fill="url(#b8qga)" d="M10.3 5.163L1.75.143C1.497.002 1.184.025.946.025c-.948 0-.944.683-.944.856v10.26c0 .145-.004.854.944.854.238 0 .552.024.804-.116l8.55-5.02c.703-.39.582-.848.582-.848s.12-.46-.581-.848z"/></g></g></svg>